<svg id="Capa_1" enable-background="new 0 0 512.006 512.006" height="512" viewBox="0 0 512.006 512.006" width="512" xmlns="http://www.w3.org/2000/svg" xmlns:xlink="http://www.w3.org/1999/xlink"><linearGradient id="SVGID_1_" gradientUnits="userSpaceOnUse" x1="256.003" x2="256.003" y1="512.005" y2=".001"><stop offset="0" stop-color="#a93aff"/><stop offset="1" stop-color="#ff81ff"/></linearGradient><g><g><g><path d="m500.727 366.228-58.122-14.896c-8.025-2.057-16.198 2.781-18.254 10.806l-3.736 14.576-34.118-8.63c40.825-39.527 64.506-95.884 64.506-156.082 0-55.952-20.111-108.862-56.628-148.983-36.987-40.638-86.129-63.018-138.372-63.018s-101.385 22.38-138.372 63.017c-36.517 40.121-56.628 93.03-56.628 148.983 0 60.188 23.972 116.686 64.516 156.052l-34.131 8.653-3.734-14.568c-2.056-8.025-10.227-12.864-18.254-10.806l-58.122 14.896c-8.019 2.055-12.863 10.23-10.806 18.254l29.792 116.243c1.736 6.776 7.833 11.28 14.52 11.28 3.389 0-.043.323 61.856-15.37 8.019-2.055 12.863-10.23 10.806-18.254l-3.712-14.483 47.374-11.979c16.866 35.487 53.059 60.083 94.894 60.083 41.819 0 78.002-24.577 94.876-60.044l47.39 11.949-3.71 14.474c-2.056 8.02 2.782 16.198 10.806 18.254 61.952 15.706 58.474 15.37 61.856 15.37 6.686 0 12.783-4.504 14.52-11.28l29.792-116.243c2.057-8.019-2.781-16.198-10.805-18.254zm-445.125 112.519-22.344-87.182 29.061-7.448c2.508 9.786 19.865 77.51 22.344 87.182zm50.685-43.911-7.45-29.07 53.203-13.488c-.678 4.813-1.037 9.726-1.037 14.723 0 5.513.43 10.927 1.252 16.212zm149.716 47.165c-41.355 0-75-33.645-75-75s33.645-75 75-75 75 33.645 75 75-33.645 75-75 75zm93.181-123.357c-17.522-33.627-52.712-56.643-93.181-56.643-40.446 0-75.619 22.991-93.151 56.587l-1.947.494c-43.523-33.525-69.902-88.181-69.902-147.081 0-3.186.076-6.352.224-9.498 2.829 38.793 35.274 69.498 74.776 69.498 41.355 0 75-33.645 75-75s-33.645-75-75-75c-33.317 0-61.615 21.843-71.363 51.955 15.903-82.153 82.208-143.955 161.363-143.955s145.459 61.803 161.363 143.955c-9.748-30.112-38.046-51.955-71.363-51.955-41.355 0-75 33.645-75 75s33.645 75 75 75c39.503 0 71.947-30.705 74.776-69.498.147 3.146.224 6.312.224 9.498 0 58.868-26.031 113.324-69.947 147.117zm-228.181-161.643c0-24.813 20.187-45 45-45s45 20.187 45 45-20.187 45-45 45-45-20.187-45-45zm270 0c0 24.813-20.187 45-45 45s-45-20.187-45-45 20.187-45 45-45 45 20.187 45 45zm14.714 237.845-45.973-11.592c.827-5.298 1.259-10.726 1.259-16.253 0-4.983-.357-9.883-1.032-14.683l53.196 13.456zm50.688 43.901-29.061-7.448c2.497-9.743 19.836-77.396 22.344-87.182l29.061 7.448zm-200.402-116.746c-24.813 0-45 20.187-45 45s20.187 45 45 45 45-20.187 45-45-20.187-45-45-45zm0 60c-8.271 0-15-6.729-15-15s6.729-15 15-15 15 6.729 15 15-6.729 15-15 15z" fill="url(#SVGID_1_)"/></g></g></g></svg>